HIERARCHY
ROOT Hips
{
	OFFSET 0.00000 0.00000 0.00000
	CHANNELS 6 Xposition Yposition Zposition Zrotation Yrotation Xrotation 
	JOINT LHipJoint
	{
		OFFSET 0 0 0
		CHANNELS 3 Zrotation Yrotation Xrotation
		JOINT LeftHip
		{
			OFFSET 1.66553 -1.82942 0.76350
			CHANNELS 3 Zrotation Yrotation Xrotation
			JOINT LeftKnee
			{
				OFFSET 2.41740 -6.64177 0.00000
				CHANNELS 3 Zrotation Yrotation Xrotation
				JOINT LeftAnkle
				{
					OFFSET 2.71614 -7.46254 0.00000
					CHANNELS 3 Zrotation Yrotation Xrotation
					JOINT LeftToe
					{
						OFFSET 0.08005 -0.21993 1.82495
						CHANNELS 3 Zrotation Yrotation Xrotation
						End Site
						{
							OFFSET 0.00000 -0.00000 0.93441
						}
					}
				}
			}
		}
	}
	JOINT RHipJoint
	{
		OFFSET 0 0 0
		CHANNELS 3 Zrotation Yrotation Xrotation
		JOINT RightHip
		{
			OFFSET -1.63725 -1.82942 0.76350
			CHANNELS 3 Zrotation Yrotation Xrotation
			JOINT RightKnee
			{
				OFFSET -2.40538 -6.60872 0.00000
				CHANNELS 3 Zrotation Yrotation Xrotation
				JOINT RightAnkle
				{
					OFFSET -2.73312 -7.50919 0.00000
					CHANNELS 3 Zrotation Yrotation Xrotation
					JOINT RightToe
					{
						OFFSET -0.15567 -0.42769 1.93504
						CHANNELS 3 Zrotation Yrotation Xrotation
						End Site
						{
							OFFSET -0.00000 -0.00000 1.00100
						}
					}
				}
			}
		}
	}
	JOINT lowerback
	{
		OFFSET 0 0 0
		CHANNELS 3 Zrotation Yrotation Xrotation
		JOINT Chest
		{
			OFFSET 0.00326 2.30118 -0.13017
			CHANNELS 3 Zrotation Yrotation Xrotation
			JOINT Chest2
			{
				OFFSET 0.02887 2.30677 0.00834
				CHANNELS 3 Zrotation Yrotation Xrotation
				JOINT lowerneck
				{
					OFFSET 0 0 0
					CHANNELS 3 Zrotation Yrotation Xrotation
					JOINT Neck
					{
						OFFSET 0.12946 1.68326 0.00713
						CHANNELS 3 Zrotation Yrotation Xrotation
						JOINT Head
						{
							OFFSET -0.24364 1.67243 -0.16079
							CHANNELS 3 Zrotation Yrotation Xrotation
							End Site
							{
								OFFSET -0.09229 1.70819 -0.06383
							}
						}
					}
				}
				JOINT LeftCollar
				{
					OFFSET 0 0 0
					CHANNELS 3 Zrotation Yrotation Xrotation
					JOINT LeftShoulder
					{
						OFFSET 3.28104 0.69567 -0.00556
CHANNELS 3 Zrotation Xrotation Yrotation
						JOINT LeftElbow
						{
OFFSET 0 -5.707060 -0.000000
CHANNELS 3 Zrotation Xrotation Yrotation
							JOINT LeftWrist
							{
OFFSET 0 -3.332430 0.000000
CHANNELS 3 Zrotation Xrotation Yrotation
								JOINT lhand
								{
									OFFSET 0 0 0
CHANNELS 3 Zrotation Xrotation Yrotation
									JOINT LFingers
									{
OFFSET 0 -0.792690 0.000000
CHANNELS 3 Zrotation Xrotation Yrotation
										End Site
										{
OFFSET 0 -0.639090 0.000000
										}
									}
								}
								JOINT LThumb
								{
OFFSET 0 0.000000 0.000000
CHANNELS 3 Zrotation Xrotation Yrotation
									End Site
									{
OFFSET 0 -0.648840 0.648840
									}
								}
							}
						}
					}
				}
				JOINT RightCollar
				{
					OFFSET 0 0 0
					CHANNELS 3 Zrotation Yrotation Xrotation
					JOINT RightShoulder
					{
						OFFSET -3.40955 0.64424 0.14010
CHANNELS 3 Zrotation Xrotation Yrotation
						JOINT RightElbow
						{
OFFSET 0 -5.881760 -0.000000
CHANNELS 3 Zrotation Xrotation Yrotation
							JOINT RightWrist
							{
OFFSET 0 -3.281560 0.000000
CHANNELS 3 Zrotation Xrotation Yrotation
								JOINT rhand
								{
									OFFSET 0 0 0
CHANNELS 3 Zrotation Xrotation Yrotation
									JOINT RFingers
									{
OFFSET 0 -0.863130 0.000000
CHANNELS 3 Zrotation Xrotation Yrotation
										End Site
										{
OFFSET 0 -0.695870 0.000000
										}
									}
								}
								JOINT RThumb
								{
OFFSET 0 0.000000 0.000000
CHANNELS 3 Zrotation Xrotation Yrotation
									End Site
									{
OFFSET 0 -0.706500 0.706500
									}
								}
							}
						}
					}
				}
			}
		}
	}
}
MOTION
Frames: 5
Frame Time: 0.008333333333333333
3.797500 16.293400 -34.199200 2.831900 1.357300 -0.877300 0.000000 0.000000 0.000000 -12.926300 -0.831800 -26.877300 18.320000 19.932200 85.082800 0.604600 3.197100 13.947000 0.871100 5.950900 16.642100 0.000000 0.000000 0.000000 16.833400 13.168400 -30.971100 -13.463900 -18.943300 70.560300 -0.442700 9.811300 -12.796900 -0.029900 1.116000 -3.067900 1.751700 -1.770700 14.391900 2.164900 -2.049400 6.747100 1.575400 -1.016600 -0.926800 15.356000 7.429100 0.963700 -20.503400 12.635000 15.805600 -8.544000 5.981200 6.871500 -0.000000 0.000000 0.000000 8.504800 13.521900 -32.058100 28.855800 -39.892200 10.668100 15.957200 -5.315700 -23.097500 0.000000 0.000000 0.000000 -7.125000 0.000000 0.000000 -13.675700 53.381100 2.861000 -0.000000 0.000000 0.000000 -7.503100 2.539000 27.813500 -43.935700 -50.236300 -21.417500 -14.502400 0.444400 -14.048200 0.000000 0.000000 0.000000 7.125000 0.000000 -0.000000 8.832000 15.603000 6.206200
3.903465 16.774168 -33.533809 3.098685 3.339509 -0.811735 0.000000 0.000000 0.000000 -10.895317 -5.839942 -36.556345 18.671617 19.957626 86.113497 0.302821 2.665619 9.815013 0.034745 -1.111975 -3.057710 0.000000 0.000000 0.000000 17.611790 11.770737 -24.584436 -11.460914 -18.153168 64.269270 -0.362799 7.206231 -11.117728 -0.097887 2.012336 -5.539921 2.773506 -1.676851 15.012981 1.743085 -1.769829 6.793167 0.536313 -0.847228 -1.253275 16.215646 6.752416 0.829001 -20.300014 11.400018 14.388430 -8.700441 5.466604 6.242434 0.000000 0.000000 0.000000 9.406466 14.631612 -31.117680 28.906095 -39.936874 10.700508 15.142573 -7.021682 -21.894356 0.000000 0.000000 0.000000 -7.125000 0.000000 0.000000 -13.949982 52.049163 2.460447 0.000000 0.000000 0.000000 -7.254111 3.266342 29.827793 -58.497165 -55.894827 -33.093956 -13.712280 0.199285 -14.414585 0.000000 0.000000 0.000000 7.125000 0.000000 0.000000 9.368931 15.293870 6.656644
4.167658 17.428866 -32.861599 2.108507 3.933855 -0.027465 0.000000 0.000000 0.000000 -8.540131 -9.328201 -42.668673 14.450135 19.243558 73.573547 0.274795 1.034876 9.591032 0.139097 -2.381018 -6.560954 0.000000 0.000000 0.000000 19.000452 9.645957 -16.880921 -8.028681 -16.139787 52.664995 -0.209341 5.793800 -8.515723 -0.192355 2.811606 -7.755576 3.853774 -1.306490 15.007258 1.830444 -1.139904 6.966037 -0.081509 -0.508725 -1.073508 15.313128 6.844307 0.552312 -20.868105 11.526783 13.710115 -8.704566 5.459181 6.087556 0.000000 0.000000 0.000000 8.191175 14.324032 -30.255824 29.294752 -40.281174 10.950761 15.126598 -7.427841 -19.907433 0.000000 0.000000 0.000000 -7.125000 0.000000 0.000000 -13.169700 50.079170 1.673995 0.000000 0.000000 0.000000 -8.503275 2.229236 31.394353 -64.914730 -57.483339 -38.459072 -13.679335 -1.040811 -13.479743 0.000000 0.000000 0.000000 7.125000 0.000000 0.000000 9.397238 16.241482 6.482379
4.601772 17.921415 -31.968111 0.927528 3.025281 2.198740 0.000000 0.000000 0.000000 -7.808986 -10.199848 -41.733695 7.642626 15.848845 51.263056 0.794140 -0.747643 17.125364 0.931309 -6.130859 -17.169667 0.000000 0.000000 0.000000 18.932825 6.898051 -11.222942 -5.257143 -13.667391 41.921474 0.042178 7.378034 -4.150118 -0.097591 2.014025 -5.544319 4.040980 -0.578772 13.136277 1.608774 -0.250042 6.209400 -0.567078 -0.065969 -0.847457 15.432486 6.864748 0.702159 -20.999678 11.567036 13.547185 -8.771406 5.490640 6.033703 0.000000 0.000000 0.000000 7.771617 16.481574 -30.992231 29.102098 -40.111085 10.826448 14.305054 -7.157720 -22.858617 0.000000 0.000000 0.000000 -7.125000 0.000000 0.000000 -15.201343 52.849989 2.993180 0.000000 0.000000 0.000000 -8.915998 2.935158 32.056542 -68.948470 -58.257201 -41.875585 -11.893598 -1.992053 -12.752965 0.000000 0.000000 0.000000 7.125000 0.000000 0.000000 10.635258 17.093195 7.164823
5.237358 17.994760 -30.898195 -1.992736 0.701835 4.219167 0.000000 0.000000 0.000000 -5.229797 -11.533927 -37.629463 5.150749 13.551575 41.469985 1.236661 0.963225 20.729762 0.672173 -5.237474 -14.588234 0.000000 0.000000 0.000000 20.177034 7.288676 -8.044214 -4.474167 -12.765876 38.498531 0.131650 8.117776 -2.332322 -0.188388 2.795524 -7.710024 4.257731 -0.586694 12.071361 1.731739 -0.268539 5.286327 -0.562581 -0.093895 -1.241064 15.517653 7.631300 0.948295 -21.167974 12.490610 12.341260 -8.731879 5.968782 5.830474 0.000000 0.000000 0.000000 7.688363 17.510481 -33.191693 25.347148 -36.556317 8.496000 12.541601 -7.476465 -24.304810 0.000000 0.000000 0.000000 -7.125000 0.000000 0.000000 -17.648851 53.931123 3.970355 0.000000 0.000000 0.000000 -9.422942 2.355338 33.969895 -62.975657 -57.051036 -36.828074 -15.201331 -3.092575 -16.761384 0.000000 0.000000 0.000000 7.125000 0.000000 0.000000 8.389232 12.783201 6.394984
